<?xml version="1.0" encoding="utf-8"?>
<!-- Generator: Adobe Illustrator 22.1.0, SVG Export Plug-In . SVG Version: 6.00 Build 0)  -->
<svg version="1.1" id="Layer_1" xmlns="http://www.w3.org/2000/svg" xmlns:xlink="http://www.w3.org/1999/xlink" x="0px" y="0px"
	 viewBox="0 0 2000 2000" style="enable-background:new 0 0 2000 2000;" xml:space="preserve">
<style type="text/css">
	.st0{fill:#0E8E97;}
	.st1{fill:#FFFFFF;}
	.st2{font-family:'MyriadPro-Regular';}
	.st3{font-size:800px;}
</style>
<g>
	<rect x="67.5" y="263.5" class="st0" width="602" height="602"/>
	<path class="st1" d="M668,265v599H69V265H668 M671,262H66v605h605V262L671,262z"/>
</g>
<g>
	<rect x="701.5" y="263.5" class="st0" width="602" height="602"/>
	<path class="st1" d="M1302,265v599H703V265H1302 M1305,262H700v605h605V262L1305,262z"/>
</g>
<g>
	<rect x="1335.5" y="263.5" class="st0" width="602" height="602"/>
	<path class="st1" d="M1936,265v599h-599V265H1936 M1939,262h-605v605h605V262L1939,262z"/>
</g>
<text transform="matrix(1 0 0 1 89.5 832.5)" class="st1 st2 st3">C</text>
<text transform="matrix(1 0 0 1 681.8021 832.2368)" class="st1 st2 st3">M</text>
<text transform="matrix(1 0 0 1 1435.0254 830)" class="st1 st2 st3">S</text>
</svg>
