<?xml version="1.0" ?><!DOCTYPE svg  PUBLIC '-//W3C//DTD SVG 1.1//EN'  'http://www.w3.org/Graphics/SVG/1.1/DTD/svg11.dtd'><svg enable-background="new 0 0 48 48" id="Layer_1" version="1.1" viewBox="0 0 48 48" xml:space="preserve" xmlns="http://www.w3.org/2000/svg" xmlns:xlink="http://www.w3.org/1999/xlink"><circle cx="24" cy="24" fill="#0DA8AA" r="24"/><g><path d="M23.6,21.6c0,1.7-1.5,3.1-3.3,3.1c-1.8,0-3.3-1.4-3.3-3.1c0-1.7,1.5-3.1,3.3-3.1   C22.2,18.5,23.6,19.9,23.6,21.6" fill="#FFFFFF"/><path d="M24.7,21.6c0,1.7,1.5,3.1,3.3,3.1c1.8,0,3.3-1.4,3.3-3.1c0-1.7-1.5-3.1-3.3-3.1   C26.2,18.5,24.7,19.9,24.7,21.6" fill="#FFFFFF"/><path d="M13.4,25.4V14.2c0-1.9,0.5-2.4,2.2-2.4h17c1.6,0,2.2,0.7,2.2,2.4v10.9l1.3-0.9V13c0-1.5-1.1-2.7-2.5-2.7   H14.4c-1.4,0-2.5,1.2-2.5,2.7v11.5L13.4,25.4" fill="#FFFFFF"/><path d="M24.4,27.5c0-1,0.4-1.6,1.8-1.5c2,0.1,5.8,0.5,10.2-2.6c0.8-0.6,1.4,0.2,0.9,0.9c-1,1.2-2.8,2.7-5.7,3.8   c3,10.2-7.3,11.9-7.2,6.6C24.4,34.9,24.4,27.5,24.4,27.5" fill="#FFFFFF"/><path d="M23.6,27.5c0-1-0.4-1.6-1.8-1.5c-2,0.1-5.8,0.5-10.2-2.6c-0.8-0.6-1.4,0.2-0.9,0.9c1,1.2,2.8,2.7,5.7,3.8   c-3,10.2,7.3,11.9,7.2,6.6C23.6,34.9,23.6,27.5,23.6,27.5" fill="#FFFFFF"/><path d="M28.6,26.8c-1.4,2-3.1,1.6-5.1-0.3c-2.1-1.9-0.7,2.9,0.2,3.1c1.2,0.3,1.7,0.6,3.4,0.2   c1.6-0.4,2.4-1.5,2.7-2.3C30.2,26.1,29.3,25.7,28.6,26.8" fill="#FFFFFF"/></g></svg>