<?xml version="1.0" ?><!DOCTYPE svg  PUBLIC '-//W3C//DTD SVG 1.1//EN'  'http://www.w3.org/Graphics/SVG/1.1/DTD/svg11.dtd'><svg enable-background="new 0 0 48 48" id="Layer_1" version="1.1" viewBox="0 0 48 48" xml:space="preserve" xmlns="http://www.w3.org/2000/svg" xmlns:xlink="http://www.w3.org/1999/xlink"><circle cx="24" cy="24" fill="#AACA54" r="24"/><path d="M35.9,18.5C35.8,20.8,34.1,24,31,28c-3.2,4.2-6,6.3-8.2,6.3c-1.4,0-2.6-1.3-3.5-3.8c-0.6-2.3-1.3-4.7-1.9-7  c-0.7-2.6-1.5-3.8-2.3-3.8c-0.2,0-0.8,0.4-1.9,1.1l-1.1-1.4c1.2-1,2.3-2.1,3.5-3.1c1.6-1.4,2.7-2.1,3.5-2.1c1.8-0.2,3,1.1,3.4,3.8  c0.5,2.9,0.8,4.7,1,5.4c0.5,2.4,1.1,3.6,1.8,3.6c0.5,0,1.2-0.8,2.2-2.3c1-1.6,1.5-2.8,1.6-3.6c0.1-1.3-0.4-2-1.6-2  c-0.6,0-1.2,0.1-1.8,0.4c1.2-3.8,3.4-5.6,6.7-5.5C34.9,13.8,36,15.4,35.9,18.5z" fill="#FFFFFF"/></svg>